<svg xmlns="http://www.w3.org/2000/svg" viewBox="0 0 37 37">
    <path stroke="currentColor" d="M35.5,18.5a17,17,0,1,1-17-17A17,17,0,0,1,35.5,18.5Z" fill="none" stroke-linecap="round" stroke-linejoin="round" stroke-width="3" />
    <path stroke="currentColor" d="M25.9,23h0l-4.57-4.58,4.57-4.57h0a.46.46,0,0,0,0-.67l-2.16-2.16a.48.48,0,0,0-.67,0h0L18.5,15.64l-4.57-4.58h0a.48.48,0,0,0-.67,0L11.1,13.22a.48.48,0,0,0,0,.67h0l4.57,4.57L11.1,23h0a.47.47,0,0,0,0,.66l2.16,2.17a.48.48,0,0,0,.67,0h0l4.57-4.58,4.57,4.58h0a.48.48,0,0,0,.67,0L25.9,23.7a.47.47,0,0,0,0-.66Z" />
</svg>