<svg xmlns="http://www.w3.org/2000/svg" viewBox="0 0 37.42 34.1">
    <path fill="currentColor" d="M24.76,15.38H36.2a1.22,1.22,0,0,0,1.22-1.22v-.05A18.69,18.69,0,0,0,29.69.21,1.2,1.2,0,0,0,28,.53l0,0-6.07,9.69A6,6,0,0,1,24.76,15.38Zm-2.85,5.1a5.93,5.93,0,0,1-6.4,0l-6.06,9.7a1.19,1.19,0,0,0,.37,1.65.1.1,0,0,0,0,0,18.67,18.67,0,0,0,17.69,0A1.21,1.21,0,0,0,28,30.23l0-.05ZM18.71,19a3.63,3.63,0,1,0-3.62-3.63h0A3.63,3.63,0,0,0,18.71,19ZM1.22,15.38H12.66a6,6,0,0,1,2.85-5.11L9.45.58A1.2,1.2,0,0,0,7.8.18l-.06,0A18.69,18.69,0,0,0,0,14.12a1.21,1.21,0,0,0,1.17,1.25Z" />
</svg>