<svg xmlns="http://www.w3.org/2000/svg" viewBox="0 0 44.79 51.19">
    <path fill="currentColor" d="M43.9,45.29l-14.19-6.9,14.19-6.9a1.61,1.61,0,0,0,.72-2.15l-1.43-2.86A1.61,1.61,0,0,0,41,25.76L22.39,34.83,3.75,25.76a1.61,1.61,0,0,0-2.15.72L.17,29.34a1.6,1.6,0,0,0,.71,2.15l14.2,6.9L.88,45.29a1.6,1.6,0,0,0-.71,2.15L1.6,50.3A1.61,1.61,0,0,0,3.75,51L22.39,42,41,51a1.61,1.61,0,0,0,2.15-.72l1.43-2.86A1.61,1.61,0,0,0,43.9,45.29ZM15,23.72l-.55,2.59a1.94,1.94,0,0,0,1.64,2.48H28.7a1.94,1.94,0,0,0,1.64-2.48l-.55-2.59a12.54,12.54,0,0,0,7-10.92C36.79,5.73,30.34,0,22.39,0S8,5.73,8,12.8A12.54,12.54,0,0,0,15,23.72ZM28,11.2a3.2,3.2,0,1,1-3.2,3.2A3.2,3.2,0,0,1,28,11.2Zm-11.19,0a3.2,3.2,0,1,1-3.21,3.2,3.2,3.2,0,0,1,3.21-3.2Z" />
</svg>