<svg xmlns="http://www.w3.org/2000/svg" viewBox="0 0 37 37">
    <path fill="currentColor"
        d="M18.5,37A18.5,18.5,0,1,1,37,18.5,18.52,18.52,0,0,1,18.5,37Zm0-34A15.5,15.5,0,1,0,34,18.5,15.51,15.51,0,0,0,18.5,3Z" />
    <path fill="currentColor"
        d="M16.13,26.65V21a.35.35,0,0,1,.34-.35h4.06a.35.35,0,0,1,.34.35v5.64a.34.34,0,0,0,.34.34h4.15a.34.34,0,0,0,.34-.34V17.84A.34.34,0,0,1,26,17.5h1.87a.34.34,0,0,0,.23-.59L18.73,8.22a.34.34,0,0,0-.46,0L8.86,16.91a.34.34,0,0,0,.23.59H11a.34.34,0,0,1,.34.34v8.81a.34.34,0,0,0,.34.34h4.15A.34.34,0,0,0,16.13,26.65Z" />
</svg>