<svg xmlns="http://www.w3.org/2000/svg" viewBox="0 0 42.35 50.14">
    <path fill="currentColor" d="M40.6,46.74H40c-.79,0-1.46-.11-1.55-.9v0C36.66,29.29,26.24,29,26.24,25.07s10.43-4.21,12.2-20.74v0c.08-.79.75-.9,1.54-.9h.62a1.73,1.73,0,0,0,1.75-1.62A1.71,1.71,0,0,0,40.73,0h-39A1.74,1.74,0,0,0,0,1.62,1.72,1.72,0,0,0,1.62,3.41h.76c.79,0,1.46.11,1.54.9h0c1.78,16.54,12.2,16.86,12.2,20.75S5.69,29.29,3.92,45.82v0c-.08.79-.75.9-1.55.9H1.75A1.74,1.74,0,0,0,0,48.36a1.7,1.7,0,0,0,1.62,1.78h39a1.68,1.68,0,0,0,1.7-1.69v-.09A1.74,1.74,0,0,0,40.6,46.74ZM9.9,42.57c3.49-9.71,9.69-8.53,9.69-12.36V23.44c0-2.36-4.48-4-7.28-7.83a1,1,0,0,1,.21-1.33.93.93,0,0,1,.58-.18H29.27a1,1,0,0,1,1,.91,1,1,0,0,1-.16.57c-2.75,3.85-7.32,5.5-7.32,7.86v6.77c0,3.8,5.95,2.76,9.71,12.36.34.87.09,2-.84,2H10.74c-.94,0-1.16-1.07-.84-2Z" />
</svg>