<svg xmlns="http://www.w3.org/2000/svg" viewBox="0 0 37.43 37.41">
    <path fill="currentColor" d="M3.8,12.5A8.28,8.28,0,0,1,7.71,5.4a.29.29,0,0,0,.1-.4.31.31,0,0,0-.25-.13h0A6.94,6.94,0,0,0,.9,11.14,1.27,1.27,0,0,0,0,12.48a1.21,1.21,0,0,0,1,1.33,7.92,7.92,0,0,0,5.5,5.8h0a.38.38,0,0,0,.46-.3.37.37,0,0,0-.12-.37A9,9,0,0,1,3.8,12.5Z" />
    <path fill="currentColor" d="M36.18,4.93c-.09-.24-.19-.47-.29-.69a9.09,9.09,0,0,0-2-2.9A4.44,4.44,0,0,0,30.81,0a4.19,4.19,0,0,0-2.32.7C24.62,3,18.4,4.84,14.65,4.84s-3.55,0-3.55,0a8.43,8.43,0,0,0-.93,14.83c1.09.91,2.12.79,1.9,2S10,30.46,9.82,32s-.26,2.47.36,3.24,4.45,2.14,6.11,2.14,1.24-.79,1.24-3.94S16.69,21.63,19,21.63c4.35,0,6.61,1.55,10,2.85a4.93,4.93,0,0,0,1.81.42A4.43,4.43,0,0,0,34,23.26a9.16,9.16,0,0,0,1.95-2.89l.3-.72a21,21,0,0,0,1.23-7.37A20.92,20.92,0,0,0,36.18,4.93ZM33.79,19c-.58,1.41-1.58,2.54-2.42,2.54s-1.6-1.13-2.18-2.54a18.5,18.5,0,0,1-1.1-6.71,18.63,18.63,0,0,1,1.1-6.74c.58-1.4,1.34-2.25,2.17-2.25s1.83.86,2.41,2.25a18.13,18.13,0,0,1,0,13.45Z" />
</svg>