<svg xmlns="http://www.w3.org/2000/svg" viewBox="0 0 33.84 39.51">
    <path fill="currentColor" d="M0,22.59a16.58,16.58,0,0,0,2.3,8.49,16.93,16.93,0,0,0,6.19,6.16A16.44,16.44,0,0,0,17,39.51a16.79,16.79,0,0,0,8.53-2.24,16.3,16.3,0,0,0,6.12-6.13,16.85,16.85,0,0,0,2.24-8.52,2.79,2.79,0,0,0-.78-2,2.45,2.45,0,0,0-1.91-.81,2.77,2.77,0,0,0-2.76,2.78h0a11.5,11.5,0,0,1-11.5,11.5,10.76,10.76,0,0,1-8-3.37,11.11,11.11,0,0,1-3.3-8.13,11.94,11.94,0,0,1,2.56-7.48,8.06,8.06,0,0,1,6-3.57l-1.23,1.2a2.77,2.77,0,0,0-.78,1.88,2.83,2.83,0,0,0,.78,2c1.17,1.13,2.5,1.13,3.92,0l6-5.9a2.37,2.37,0,0,0,.78-2,2.15,2.15,0,0,0-.78-1.85L16.85.78A2.76,2.76,0,0,0,13,.81a2.6,2.6,0,0,0-.81,1.95,2.7,2.7,0,0,0,.77,2l1.23,1.17A16.67,16.67,0,0,0,4.05,11.72,16.34,16.34,0,0,0,0,22.59Z" />
</svg>