<svg xmlns="http://www.w3.org/2000/svg" viewBox="0 0 28.56 29.82">
    <path fill="currentColor" d="M28.18,18.5,25.62,17a11.51,11.51,0,0,0,0-4.22l2.56-1.48a.74.74,0,0,0,.34-.84,15,15,0,0,0-3.29-5.69.72.72,0,0,0-.89-.14L21.77,6.13A11,11,0,0,0,18.12,4v-3a.73.73,0,0,0-.57-.7A15.17,15.17,0,0,0,11,.36a.72.72,0,0,0-.56.7V4A11.89,11.89,0,0,0,6.77,6.13L4.21,4.65a.72.72,0,0,0-.89.14A14.94,14.94,0,0,0,0,10.48a.72.72,0,0,0,.33.84L2.92,12.8a12,12,0,0,0,0,4.22L.36,18.5a.73.73,0,0,0-.33.83A15,15,0,0,0,3.32,25a.72.72,0,0,0,.89.14l2.57-1.48a11.21,11.21,0,0,0,3.65,2.11v3a.71.71,0,0,0,.56.7,15.17,15.17,0,0,0,6.57,0,.71.71,0,0,0,.56-.7v-3a11.74,11.74,0,0,0,3.66-2.11l2.56,1.48a.72.72,0,0,0,.89-.14,15,15,0,0,0,3.3-5.69.75.75,0,0,0-.34-.84ZM14.27,19.72a4.81,4.81,0,1,1,4.81-4.81,4.81,4.81,0,0,1-4.81,4.81Z" />
</svg>