<svg xmlns="http://www.w3.org/2000/svg" viewBox="0 0 37 37">
    <path fill="currentColor"
        d="M18.5,37A18.5,18.5,0,1,1,37,18.5,18.52,18.52,0,0,1,18.5,37Zm0-34A15.5,15.5,0,1,0,34,18.5,15.51,15.51,0,0,0,18.5,3Z" />
    <path fill="currentColor"
        d="M28.18,21.51l-1.84-1.06a8.12,8.12,0,0,0,0-3l1.84-1.06a.52.52,0,0,0,.24-.6,10.7,10.7,0,0,0-2.36-4.09.52.52,0,0,0-.64-.1l-1.84,1.06A8,8,0,0,0,21,11.11V9a.51.51,0,0,0-.4-.5,10.74,10.74,0,0,0-4.72,0,.51.51,0,0,0-.41.5v2.13a8.37,8.37,0,0,0-2.62,1.51L11,11.57a.5.5,0,0,0-.63.1A10.72,10.72,0,0,0,8,15.76a.52.52,0,0,0,.24.6L10,17.42a8.57,8.57,0,0,0,0,3L8.2,21.51a.54.54,0,0,0-.24.6,10.89,10.89,0,0,0,2.37,4.1.53.53,0,0,0,.64.1l1.84-1.07a8.1,8.1,0,0,0,2.62,1.52v2.12a.52.52,0,0,0,.4.51,11,11,0,0,0,4.72,0,.52.52,0,0,0,.41-.51V26.76a8.29,8.29,0,0,0,2.62-1.52l1.84,1.06a.5.5,0,0,0,.64-.1,10.61,10.61,0,0,0,2.37-4.08.54.54,0,0,0-.24-.61Zm-10,.88a3.46,3.46,0,1,1,3.46-3.46,3.45,3.45,0,0,1-3.46,3.46Z" />
</svg>