<svg xmlns="http://www.w3.org/2000/svg" viewBox="0 0 34.79 37.96">
    <path fill="currentColor" d="M10.28,38H15a.79.79,0,0,0,.79-.79V.79A.79.79,0,0,0,15,0H10.28a.79.79,0,0,0-.79.79V37.16A.79.79,0,0,0,10.28,38Z" />
    <path fill="currentColor" d="M.79,38H5.54a.81.81,0,0,0,.79-.8V22.93a.8.8,0,0,0-.79-.79H.79a.79.79,0,0,0-.79.79V37.16A.8.8,0,0,0,.79,38Z" />
    <path fill="currentColor" d="M19.78,38H24.5a.8.8,0,0,0,.8-.8h0V16.62a.8.8,0,0,0-.79-.81H19.78a.8.8,0,0,0-.8.8h0V37.15a.81.81,0,0,0,.79.81Z" />
    <path fill="currentColor" d="M28.47,7.13v30a.79.79,0,0,0,.79.8H34a.79.79,0,0,0,.8-.79h0v-30a.79.79,0,0,0-.79-.8H29.27a.79.79,0,0,0-.8.79Z" />
</svg>