<svg xmlns="http://www.w3.org/2000/svg" viewBox="0 0 37 37">
    <path fill="currentColor"
        d="M13.51,34.78h3.33a.57.57,0,0,0,.55-.61V5.81a.59.59,0,0,0-.55-.62H13.51a.61.61,0,0,0-.56.62V34.17A.59.59,0,0,0,13.51,34.78Z" />
    <path fill="currentColor"
        d="M6.85,32.4h3.33a.58.58,0,0,0,.56-.59V21.3a.58.58,0,0,0-.56-.58H6.85a.57.57,0,0,0-.55.58V31.81A.57.57,0,0,0,6.85,32.4Z" />
    <path fill="currentColor"
        d="M20.17,34.78h3.31a.61.61,0,0,0,.56-.66V17a.62.62,0,0,0-.56-.67H20.17a.62.62,0,0,0-.56.67V34.12A.61.61,0,0,0,20.17,34.78Z" />
    <path fill="currentColor"
        d="M26.26,10.2V31.82a.58.58,0,0,0,.56.58h3.32a.58.58,0,0,0,.56-.58h0V10.2a.56.56,0,0,0-.56-.57H26.82a.57.57,0,0,0-.56.57Z" />
    <path fill="currentColor"
        d="M18.5,37A18.5,18.5,0,1,1,37,18.5,18.52,18.52,0,0,1,18.5,37Zm0-34A15.5,15.5,0,1,0,34,18.5,15.51,15.51,0,0,0,18.5,3Z" />
</svg>