<svg xmlns="http://www.w3.org/2000/svg" viewBox="0 0 37 37">
    <path fill="currentColor" d="M13.51,34.78h3.33a.57.57,0,0,0,.55-.61V5.81a.58.58,0,0,0-.55-.62H13.51a.58.58,0,0,0-.55.62V34.17A.57.57,0,0,0,13.51,34.78Z" />
    <path fill="currentColor" d="M6.86,32.4h3.32a.58.58,0,0,0,.56-.59V21.3a.58.58,0,0,0-.56-.58H6.86a.57.57,0,0,0-.56.58V31.81A.57.57,0,0,0,6.86,32.4Z" />
    <path fill="currentColor" d="M20.17,34.78h3.31a.63.63,0,0,0,.57-.66V17a.63.63,0,0,0-.57-.67H20.17a.62.62,0,0,0-.56.67V34.12A.61.61,0,0,0,20.17,34.78Z" />
    <path fill="currentColor" d="M26.26,10.2V31.82a.58.58,0,0,0,.56.58h3.32a.58.58,0,0,0,.56-.58h0V10.2a.56.56,0,0,0-.56-.57H26.83a.57.57,0,0,0-.57.57Z" />
    <path stroke="currentColor" d="M35.5,18.5a17,17,0,1,1-17-17A17,17,0,0,1,35.5,18.5Z" fill="none" stroke-linecap="round" stroke-linejoin="round" stroke-width="3" />
</svg>