<?xml version="1.0" encoding="UTF-8"?><svg xmlns="http://www.w3.org/2000/svg" viewBox="0 0 43 43">
    <rect id="e" x=".98" y=".55" width="41.15" height="41.3" fill="#74bbf8" />
    <path id="f" d="M0,0V43H43V0H0ZM39.63,3.52V39.42H3.37V3.52H39.63Z" />
    <path fill="#fff"
        d="M10.6,11.32c1.21,.27,3.1,.38,6.85,.38,.8-1.77,1.06-2.66,1.18-3.66l3.87,.41q-.18,.3-1.18,2.66c-.15,.32-.21,.41-.27,.53q.24-.03,1.86-.12c3.43-.21,6.11-.53,7.74-1l.21,3.37q-.83,.06-2.33,.24c-2.16,.27-5.91,.5-8.89,.59-.86,1.68-1.68,2.87-2.72,3.93l.03,.06q.21-.15,.59-.44c1.09-.83,2.66-1.33,4.16-1.33,2.3,0,3.75,1.09,4.22,3.13,2.27-.83,3.78-1.36,4.52-1.59,1.59-.56,1.71-.59,2.19-.89l1.39,3.4c-.83,.12-1.71,.35-3.28,.8-.41,.12-1.89,.62-4.43,1.51v.33q.03,.77,.03,1.18v1.18c-.03,.5-.03,.77-.03,.97,0,.65,.03,1.06,.09,1.57l-3.43,.09c.12-.53,.18-2.04,.18-3.43v-.71c-1.45,.68-2.21,1.09-2.84,1.54-1.03,.77-1.54,1.57-1.54,2.42,0,1.54,1.42,2.16,4.99,2.16s6.59-.44,8.68-1.24l.3,3.81c-.5,0-.65,.03-1.36,.12-2.13,.33-4.96,.53-7.56,.53-3.13,0-5.08-.35-6.59-1.24-1.36-.77-2.16-2.19-2.16-3.81,0-1.21,.35-2.16,1.3-3.28,1.33-1.65,3.01-2.78,6.35-4.16-.15-1.09-.74-1.6-1.8-1.6-1.71,0-3.78,1.03-6.05,3.04-1.24,1.03-1.92,1.77-2.57,2.69l-2.69-2.66c.77-.59,1.62-1.42,2.66-2.63,1.15-1.36,2.95-3.93,3.54-5.05q.12-.24,.24-.38c-.12,0-.5,.03-.5,.03-.47,0-3.07-.06-3.72-.06q-.56-.03-.83-.03c-.09,0-.27,0-.47,.03l.06-3.37Z" />
</svg>