<?xml version="1.0" encoding="UTF-8"?><svg xmlns="http://www.w3.org/2000/svg" viewBox="0 0 84 79.5">
    <rect x="2.15" y="1.33" width="80" height="76.97" fill="#fff" />
    <rect x="2.42" y="1.74" width="39" height="38" fill="#74bbf8" />
    <path id="e"
        d="M0,0V79.5H84V0H0ZM81,39H43.5V3h37.5V39ZM40.5,3V39H3V3H40.5ZM3,42H40.5v34.5H3V42Zm40.5,34.5V42h37.5v34.5H43.5Z" />
    <path
        d="M10.39,10.86c1.16,.26,2.98,.37,6.59,.37,.77-1.7,1.02-2.56,1.14-3.52l3.72,.4q-.17,.28-1.14,2.56c-.14,.31-.2,.4-.26,.51q.23-.03,1.79-.11c3.29-.2,5.88-.51,7.44-.97l.2,3.24q-.8,.06-2.24,.23c-2.07,.26-5.68,.48-8.55,.57-.82,1.62-1.62,2.76-2.61,3.78l.03,.06q.2-.14,.57-.43c1.05-.8,2.56-1.28,4-1.28,2.21,0,3.61,1.05,4.06,3.01,2.19-.8,3.63-1.31,4.34-1.53,1.53-.54,1.65-.57,2.1-.85l1.33,3.26c-.8,.11-1.65,.34-3.15,.77-.4,.11-1.82,.6-4.26,1.45v.31q.03,.74,.03,1.14v1.14c-.03,.48-.03,.74-.03,.94,0,.62,.03,1.02,.09,1.51l-3.29,.09c.11-.51,.17-1.96,.17-3.29v-.68c-1.39,.65-2.13,1.05-2.73,1.48-.99,.74-1.48,1.51-1.48,2.33,0,1.48,1.36,2.07,4.8,2.07s6.33-.43,8.35-1.19l.28,3.66c-.48,0-.62,.03-1.31,.11-2.04,.31-4.77,.51-7.27,.51-3.01,0-4.88-.34-6.33-1.19-1.31-.74-2.07-2.1-2.07-3.66,0-1.16,.34-2.07,1.25-3.15,1.28-1.59,2.9-2.67,6.11-4-.14-1.05-.71-1.53-1.73-1.53-1.65,0-3.63,.99-5.82,2.93-1.19,.99-1.85,1.7-2.47,2.58l-2.59-2.56c.74-.57,1.56-1.36,2.56-2.53,1.11-1.31,2.84-3.78,3.41-4.86q.11-.23,.23-.37c-.11,0-.48,.03-.48,.03-.45,0-2.95-.06-3.58-.06q-.54-.03-.8-.03c-.09,0-.26,0-.45,.03l.06-3.24Z" />
    <path
        d="M52.37,32.16c-.03-.51-.06-.68-.14-1.33-.54-3.44-.74-5.62-.74-8.49,0-3.66,.34-6.9,1.16-11.1,.31-1.59,.37-1.87,.43-2.64l3.75,.4c-.68,1.68-1.34,4.86-1.79,8.49-.28,2.13-.4,3.8-.43,6.28,0,.62-.03,.85-.06,1.56,.31-.99,.37-1.19,1.48-3.75l2.27,1.02c-1.56,3.29-2.53,6.59-2.53,8.6,0,.17,0,.4,.03,.77l-3.44,.2Zm12.1-11.22c-1.42,1.65-2.02,2.87-2.02,4.09,0,1.62,1.56,2.47,4.52,2.47,2.5,0,4.97-.4,6.76-1.08l.28,3.61c-.4,.03-.51,.06-1.16,.17-2.27,.37-4,.54-5.88,.54-3.52,0-5.79-.79-7.04-2.47-.54-.71-.85-1.76-.85-2.78,0-1.85,.85-3.75,2.61-5.85l2.78,1.31Zm-4.69-9.4c1.28,.34,2.78,.45,5.25,.45,3.15,0,5.85-.26,7.72-.77l.17,3.44c-.23,.03-.65,.09-2.02,.26-1.82,.23-3.98,.34-6.08,.34s-2.1,0-5.11-.31l.06-3.41Z" />
    <path
        d="M9.21,49.43c.62,.03,.94,.03,1.08,.03q.51,0,4.69-.28c2.07-.11,6.93-.37,14.51-.74,2.33-.11,2.47-.11,2.93-.23l.2,3.61q-.31-.03-.6-.03c-1.7,0-3.8,.57-5.62,1.53-3.61,1.88-5.74,4.71-5.74,7.58,0,2.21,1.39,3.92,3.78,4.63,1.39,.43,3.21,.74,4.23,.74,.03,0,.28,0,.57-.03l-.51,3.86c-.37-.09-.43-.09-.97-.17-3.12-.4-4.91-.91-6.65-1.88-2.61-1.48-4.06-3.89-4.06-6.84,0-2.41,.97-4.8,2.7-6.67,1.08-1.16,2.1-1.93,3.95-2.87-2.3,.34-4.06,.51-9.57,.91-2.53,.2-3.83,.37-4.71,.57l-.2-3.72Zm19.57,5.45c1.25,1.34,2.02,2.41,2.98,4.17l-1.99,1.05c-.94-1.73-1.73-2.87-2.98-4.23l1.99-.99Zm4.4,3.44c-.85-1.56-1.79-2.9-2.9-4.12l1.9-.99c1.28,1.31,2.07,2.39,2.95,4l-1.96,1.11Z" />
    <path
        d="M60.29,47.39c.11,1.9,.97,5.99,1.87,8.89q1.85-.68,7.36-2.5c.51-.17,.65-.23,1.08-.43l1.22,3.58c-2.47,.48-6.19,1.56-9.37,2.73-4.15,1.53-6.22,3.35-6.22,5.4s1.93,2.95,6.5,2.95c3.55,0,7.04-.43,9.17-1.16l.31,3.89c-.62,0-.77,.03-2.3,.2-3.07,.31-4.66,.43-6.64,.43-3.95,0-6.42-.48-8.24-1.56-1.56-.94-2.47-2.7-2.47-4.74,0-1.9,.91-3.72,2.53-5.08,1.11-.94,2.02-1.51,3.86-2.44-.71-2.3-1.19-4.2-1.9-7.7-.28-1.36-.31-1.42-.45-1.85l3.69-.6Z" />
</svg>