<svg xmlns="http://www.w3.org/2000/svg" viewBox="0 0 204 54">
    <rect x="2.24" y="2.15" width="49.52" height="49.7" fill="#74bbf8" />
    <path
        d="M13.82,15.11a43,43,0,0,0,8.25.46,14,14,0,0,0,1.42-4.41l4.66.5a25.61,25.61,0,0,0-1.43,3.2c-.17.39-.24.5-.31.64.28,0,.28,0,2.24-.14A48,48,0,0,0,38,14.15l.25,4c-1,.07-1,.07-2.81.29-2.6.32-7.11.6-10.7.71a18.54,18.54,0,0,1-3.27,4.72l0,.07c.25-.17.25-.17.72-.53a8.6,8.6,0,0,1,5-1.6c2.77,0,4.51,1.32,5.08,3.77q4.11-1.5,5.44-1.92a10.6,10.6,0,0,0,2.63-1.07L42,26.73a31.65,31.65,0,0,0-3.95,1c-.49.14-2.27.75-5.33,1.81v.4c0,.92,0,.92,0,1.42v1.42c0,.6,0,.92,0,1.17a14.93,14.93,0,0,0,.11,1.89l-4.12.1a28.53,28.53,0,0,0,.21-4.12v-.85a21.11,21.11,0,0,0-3.41,1.84,3.75,3.75,0,0,0-1.85,2.92c0,1.85,1.7,2.59,6,2.59a30.83,30.83,0,0,0,10.44-1.49l.36,4.58a10.18,10.18,0,0,0-1.63.15,64.72,64.72,0,0,1-9.1.64c-3.77,0-6.12-.43-7.93-1.5a5.15,5.15,0,0,1-2.59-4.58,5.65,5.65,0,0,1,1.56-3.95c1.6-2,3.63-3.34,7.64-5a2,2,0,0,0-2.17-1.92c-2.06,0-4.55,1.25-7.28,3.66a15.92,15.92,0,0,0-3.09,3.24l-3.24-3.2a22.57,22.57,0,0,0,3.2-3.16,46.93,46.93,0,0,0,4.26-6.08,1.75,1.75,0,0,1,.29-.46l-.61,0c-.56,0-3.69-.07-4.47-.07l-1,0a4.64,4.64,0,0,0-.57,0Z"
        fill="#fff" />
    <rect x="2" y="2" width="50" height="50" fill="none" stroke="#000" stroke-miterlimit="10" stroke-width="4" />
    <rect x="52.24" y="2.15" width="49.52" height="49.7" fill="#fff" />
    <path
        d="M63.79,42c0-.65-.07-.87-.18-1.7a62.65,62.65,0,0,1-.94-10.81,69.25,69.25,0,0,1,1.48-14.13A22.68,22.68,0,0,0,64.69,12l4.77.5a50.09,50.09,0,0,0-2.27,10.81,61.28,61.28,0,0,0-.55,8c0,.8,0,1.09-.07,2a36.77,36.77,0,0,1,1.88-4.77l2.89,1.3c-2,4.19-3.21,8.38-3.21,11,0,.22,0,.51,0,1Zm15.4-14.28c-1.81,2.1-2.57,3.65-2.57,5.21,0,2.06,2,3.14,5.75,3.14A25.34,25.34,0,0,0,91,34.7l.36,4.59a12,12,0,0,0-1.48.22,44.52,44.52,0,0,1-7.48.68c-4.48,0-7.38-1-9-3.14a6.11,6.11,0,0,1-1.08-3.54c0-2.35,1.08-4.77,3.32-7.45Zm-6-12a26.24,26.24,0,0,0,6.69.58,39.83,39.83,0,0,0,9.83-1L90,19.73l-2.57.33a64.53,64.53,0,0,1-7.73.43,43.76,43.76,0,0,1-6.51-.39Z" />
    <rect x="52" y="2" width="50" height="50" fill="none" stroke="#000" stroke-miterlimit="10" stroke-width="4" />
    <rect x="102.24" y="2.15" width="49.52" height="49.7" fill="#fff" />
    <path
        d="M110,14.24c.82,0,1.23,0,1.41,0,.67,0,.67,0,6.15-.37,2.72-.15,9.09-.48,19-1a19.8,19.8,0,0,0,3.83-.3l.27,4.73a7.22,7.22,0,0,0-.79,0,16.59,16.59,0,0,0-7.37,2c-4.73,2.46-7.52,6.18-7.52,9.94,0,2.9,1.82,5.14,5,6.07a22.6,22.6,0,0,0,5.55,1,7.35,7.35,0,0,0,.74,0l-.67,5.07a10.52,10.52,0,0,0-1.26-.23c-4.1-.52-6.44-1.19-8.72-2.46a10,10,0,0,1-5.32-9A12.92,12.92,0,0,1,123.82,21,16.35,16.35,0,0,1,129,17.19c-3,.44-5.32.67-12.55,1.19a47,47,0,0,0-6.18.74Zm25.66,7.15a24.44,24.44,0,0,1,3.91,5.48L137,28.25a25.23,25.23,0,0,0-3.91-5.55Zm5.77,4.51a27.57,27.57,0,0,0-3.8-5.4l2.5-1.3A21.55,21.55,0,0,1,144,24.45Z" />
    <rect x="102" y="2" width="50" height="50" fill="none" stroke="#000" stroke-miterlimit="10" stroke-width="4" />
    <rect x="152.24" y="2.15" width="49.52" height="49.7" fill="#fff" />
    <path
        d="M174.25,11.3A62.56,62.56,0,0,0,176.7,23c2.42-.9,2.42-.9,9.64-3.28a8.81,8.81,0,0,0,1.41-.56l1.6,4.69a91.32,91.32,0,0,0-12.28,3.57c-5.43,2-8.14,4.39-8.14,7.07s2.53,3.87,8.52,3.87a40.62,40.62,0,0,0,12-1.53l.41,5.1a23.75,23.75,0,0,0-3,.26,78.53,78.53,0,0,1-8.71.56c-5.17,0-8.4-.64-10.78-2.05a7,7,0,0,1-3.24-6.21,8.75,8.75,0,0,1,3.31-6.66,22.9,22.9,0,0,1,5.06-3.2A94.36,94.36,0,0,1,170,14.5a15.08,15.08,0,0,0-.6-2.42Z" />
    <rect x="152" y="2" width="50" height="50" fill="none" stroke="#000" stroke-miterlimit="10" stroke-width="4" />
</svg>